<svg width="1280" height="720" viewBox="0 0 1280 720" fill="none" xmlns="http://www.w3.org/2000/svg">
<path d="M1298.5 -44H-20V-33.5V92C135.167 177.333 483.8 348.9 637 352.5C828.5 357 920 374 996.5 279C1073 184 1208 184 1298.5 158C1370.9 137.2 1328.67 14.6667 1298.5 -44Z" fill="#49CCCC"/>
<path d="M182 416.5C85.2 374.9 19.3333 384.833 -1.5 395L-79.5 761L961.5 743C933.5 692.333 855.4 580.3 767 537.5C678.6 494.7 556.833 512.667 507 527C470.167 546.833 369 581.9 259 563.5C121.5 540.5 303 468.5 182 416.5Z" fill="#FFCC4A"/>
<path d="M1511 629.5C1529 593 1431.5 427.5 1284.5 467C1232.5 446.667 1092.4 418.2 948 467C803.6 515.8 712.167 697.667 684.5 782.5L1332 804C1385.67 758 1496.6 658.7 1511 629.5Z" fill="#F25454"/>
</svg>
