<svg width="389" height="842" viewBox="0 0 389 842" fill="none" xmlns="http://www.w3.org/2000/svg">
<path d="M393 -1.5H-1V131.5C60.7936 195.407 113.194 231.248 171.644 248.943C190 254.5 284.346 265.044 314.811 193.898C345.277 122.752 394.459 119.472 430.5 100C459.333 84.4227 405.014 42.4361 393 -1.5Z" fill="#49CCCC"/>
<path d="M-1 533.5C19.8333 523.333 59.5 515.585 86 533.5C195.108 607.259 1 675.415 138.5 698.415C234.441 714.463 254.437 829.114 282.42 845H295.5C290.792 847.535 286.52 847.328 282.42 845H-1V533.5Z" fill="#FFCC4A"/>
<path d="M111.5 843.5L418.5 843.5C408 791.5 501 553 357.5 591.945C210.398 631.868 147.5 754 111.5 843.5Z" fill="#F25454"/>
</svg>
