<svg id="Layer_35" enable-background="new 0 0 64 64" height="512" viewBox="0 0 64 64" width="512" xmlns="http://www.w3.org/2000/svg"><path d="m34 35v24c0 .83-.34 1.58-.88 2.12s-1.29.88-2.12.88c-1.66 0-3-1.34-3-3v-25h6z" fill="#cf9e76"/><path d="m40 34v25c0 .83-.34 1.58-.88 2.12s-1.29.88-2.12.88c-1.66 0-3-1.34-3-3v-24-1z" fill="#cf9e76"/><path d="m58 10.4v.19c0 .87-.47 1.67-1.23 2.1l-14.71 8.17c-1.27.7-2.06 2.04-2.06 3.49v9.65h-6-6v-1.04-5.96c0-3.04-1.23-5.79-3.22-7.78-1.74-1.74-4.06-2.9-6.65-3.16-.37-.04-.75-.06-1.13-.06h14c0 2.21 1.34 4 3 4s3-1.79 3-4h.5c1.64 0 3.26-.4 4.71-1.18l12.26-6.54c.35-.18.74-.28 1.13-.28 1.33 0 2.4 1.07 2.4 2.4z" fill="#fcd770"/><path d="m8.5 16h8.5c-.38 0-.76.02-1.13.06-3.35.34-6.26 2.18-8.03 4.85-1.06-.29-1.84-1.26-1.84-2.41 0-1.38 1.12-2.5 2.5-2.5z" fill="#fcd770"/><path d="m23 38v21c0 .83-.34 1.58-.88 2.12s-1.29.88-2.12.88c-1.66 0-3-1.34-3-3v-25h6z" fill="#838f9b"/><path d="m17 34v25c0 1.66-1.34 3-3 3-.83 0-1.58-.34-2.12-.88s-.88-1.29-.88-2.12v-21-4z" fill="#838f9b"/><path d="m11 34v4h-1c-2.21 0-4-1.79-4-4v-7c0-2.25.68-4.35 1.84-6.09 1.77-2.67 4.68-4.51 8.03-4.85l-.87 9.94 2 2 2-2-.87-9.94c2.59.26 4.91 1.42 6.65 3.16 1.99 1.99 3.22 4.74 3.22 7.78v5.96 1.04c0 2.21-1.79 4-4 4h-1v-4h-6z" fill="#ff826e"/><path d="m18.13 16.06.87 9.94-2 2-2-2 .87-9.94c.37-.04.75-.06 1.13-.06s.76.02 1.13.06z" fill="#e6e9ed"/><g fill="#f0d0b4"><circle cx="17" cy="9" r="7"/><path d="m34 16h3c0 2.21-1.34 4-3 4s-3-1.79-3-4z"/><circle cx="34" cy="9" r="7"/></g><path d="m55.6 7c-.557 0-1.11.139-1.6.399l-12.265 6.541c-.692.369-1.432.638-2.194.816 1.513-1.456 2.459-3.496 2.459-5.756 0-4.411-3.589-8-8-8s-8 3.589-8 8c0 2.39 1.059 4.533 2.726 6h-6.453c1.668-1.467 2.727-3.61 2.727-6 0-4.411-3.589-8-8-8s-8 3.589-8 8c0 2.39 1.059 4.533 2.726 6h-3.226c-1.93 0-3.5 1.57-3.5 3.5 0 1.137.557 2.17 1.435 2.816-.914 1.693-1.435 3.628-1.435 5.684v7c0 2.757 2.243 5 5 5v20c0 2.206 1.794 4 4 4 1.2 0 2.266-.542 3-1.382.734.84 1.8 1.382 3 1.382 2.206 0 4-1.794 4-4v-20c1.13 0 2.162-.391 3-1.026v21.026c0 2.206 1.794 4 4 4 1.2 0 2.266-.542 3-1.382.734.84 1.8 1.382 3 1.382 2.206 0 4-1.794 4-4v-34.646c0-1.089.591-2.094 1.543-2.622l14.708-8.172c1.079-.599 1.749-1.738 1.749-2.972v-.188c0-1.875-1.525-3.4-3.4-3.4zm-21.6 10h1.873c-.282 1.15-1.022 2-1.873 2s-1.59-.85-1.873-2zm-6-8c0-3.309 2.691-6 6-6s6 2.691 6 6-2.691 6-6 6-6-2.691-6-6zm-10.037 16.622-.963.964-.963-.964.752-8.611c.07-.002.14-.011.211-.011s.141.009.212.011zm-6.963-16.622c0-3.309 2.691-6 6-6s6 2.691 6 6-2.691 6-6 6-6-2.691-6-6zm-4 9.5c0-.827.673-1.5 1.5-1.5h1.881c-1.083.719-2.037 1.613-2.835 2.636-.33-.279-.546-.684-.546-1.136zm7 42.5c-1.103 0-2-.897-2-2v-24h4v24c0 1.103-.897 2-2 2zm6 0c-1.103 0-2-.897-2-2v-24h4v24c0 1.103-.897 2-2 2zm4-24v-14h-2v10h-10v-10h-2v14c-1.654 0-3-1.346-3-3v-7c0-4.742 3.322-8.716 7.759-9.738l-.795 9.116 3.036 3.036 3.037-3.036-.795-9.116c4.436 1.022 7.758 4.996 7.758 9.738v5.958 1.042c0 1.654-1.346 3-3 3zm7 24c-1.103 0-2-.897-2-2v-24h4v24c0 1.103-.897 2-2 2zm6 0c-1.103 0-2-.897-2-2v-24h4v24c0 1.103-.897 2-2 2zm20-50.412c0 .508-.276.977-.72 1.224l-14.708 8.172c-1.586.88-2.572 2.555-2.572 4.37v8.646h-10v-.042-5.958c0-4.172-2.142-7.849-5.381-10h6.462c.372 2.279 1.987 4 3.919 4 1.939 0 3.557-1.734 3.921-4.026 1.656-.064 3.292-.487 4.756-1.268l12.265-6.542c.201-.107.429-.164.658-.164.772 0 1.4.628 1.4 1.4z"/></svg>